<?xml version="1.0" standalone="no"?>
<!DOCTYPE svg PUBLIC "-//W3C//DTD SVG 20010904//EN"
 "http://www.w3.org/TR/2001/REC-SVG-20010904/DTD/svg10.dtd">
<svg version="1.0" xmlns="http://www.w3.org/2000/svg"
 width="1902.000000pt" height="1783.000000pt" viewBox="0 0 1902.000000 1783.000000"
 preserveAspectRatio="xMidYMid meet">

<g transform="translate(0.000000,1783.000000) scale(0.100000,-0.100000)"
fill="#000000" stroke="none">
<path d="M5182 15553 c-3505 -1917 -4166 -2281 -4182 -2308 -43 -69 -17 -175
51 -211 26 -13 400 -45 1971 -167 1323 -103 1947 -147 1964 -141 14 5 956
1080 2215 2529 2291 2635 2231 2564 2164 2573 -11 1 -1798 -970 -4183 -2275z"/>
<path d="M9650 17810 c-6 -11 -7 -26 -3 -33 4 -8 993 -1146 2197 -2530 1503
-1728 2197 -2519 2214 -2524 14 -3 897 62 1964 145 2131 165 1980 149 2020
222 14 26 18 49 15 89 -3 46 -9 59 -38 85 -38 35 -8317 4566 -8342 4566 -9 0
-21 -9 -27 -20z"/>
<path d="M5174 12570 c-26 -10 -73 -65 -79 -93 -12 -52 -163 -1757 -158 -1778
9 -36 41 -78 73 -94 26 -13 568 -15 4518 -15 l4489 0 34 23 c19 12 42 39 52
60 19 37 18 39 -82 922 -70 621 -105 894 -116 915 -9 17 -30 40 -48 50 -32 20
-84 20 -4347 19 -2373 0 -4324 -4 -4336 -9z"/>
<path d="M165 10820 c-23 -11 -48 -33 -58 -49 -16 -27 -17 -159 -17 -2078 0
-2014 0 -2049 20 -2080 60 -99 221 -75 249 37 5 19 12 82 16 140 28 452 161
1012 331 1397 282 637 687 1004 1244 1125 93 20 132 22 340 22 216 0 245 -2
361 -27 284 -60 534 -178 749 -352 101 -83 279 -270 362 -382 289 -388 503
-910 626 -1528 38 -187 57 -321 81 -555 l19 -183 35 -35 c30 -30 44 -36 90
-40 65 -5 109 14 137 61 20 31 20 66 20 2080 0 1924 -1 2051 -17 2078 -39 66
99 53 -2273 223 -1196 86 -2197 159 -2225 162 -38 4 -60 0 -90 -16z"/>
<path d="M16575 10678 c-1646 -120 -2208 -164 -2233 -176 -18 -8 -42 -29 -55
-46 l-22 -31 -3 -2030 c-2 -1361 0 -2042 7 -2065 6 -20 24 -49 41 -65 40 -39
128 -47 177 -16 51 32 62 66 78 238 81 845 332 1583 713 2093 108 144 308 344
432 432 338 239 683 340 1114 325 256 -9 418 -48 641 -158 248 -120 496 -351
667 -619 288 -450 485 -1124 534 -1820 4 -68 12 -104 26 -128 52 -86 186 -82
236 7 l22 39 0 2033 c0 1917 -1 2036 -18 2068 -23 47 -61 73 -113 76 -24 2
-1034 -69 -2244 -157z"/>
<path d="M11835 9184 c-38 -7 -108 -32 -155 -55 -111 -55 -222 -162 -269 -262
-91 -191 -77 -438 34 -613 74 -116 148 -175 444 -358 304 -189 382 -252 429
-354 35 -76 37 -177 4 -239 -63 -119 -189 -183 -362 -183 -153 0 -265 45 -370
149 -78 78 -128 162 -165 284 -26 83 -29 87 -56 87 l-29 0 0 -315 0 -315 26 0
c16 0 42 14 67 36 37 34 43 36 91 31 28 -3 98 -16 156 -30 161 -39 260 -50
389 -45 198 9 357 80 481 214 104 113 145 238 137 419 -5 129 -30 207 -101
314 -90 135 -173 199 -608 471 -183 115 -286 208 -311 284 -49 146 15 277 169
348 41 19 66 23 154 23 102 0 108 -1 185 -39 115 -56 235 -177 295 -298 39
-80 46 -88 72 -88 l28 0 0 275 0 275 -34 0 c-19 0 -38 -5 -42 -11 -12 -20 -91
-49 -120 -44 -16 3 -89 16 -162 30 -148 28 -267 31 -377 9z"/>
<path d="M6364 9136 c-13 -33 1 -50 56 -66 125 -38 181 -85 199 -170 7 -34 11
-298 11 -800 0 -502 -4 -766 -11 -800 -18 -85 -72 -131 -199 -170 -50 -16 -55
-21 -58 -49 l-3 -31 495 0 496 0 0 34 c0 30 -3 34 -32 40 -53 10 -153 61 -176
90 -47 61 -47 53 -47 881 0 723 1 784 18 831 10 28 28 60 40 72 27 25 120 70
165 78 29 6 32 10 32 40 l0 34 -490 0 c-418 0 -491 -2 -496 -14z"/>
<path d="M8564 9136 c-13 -34 1 -49 61 -66 106 -29 149 -61 182 -135 17 -37
18 -92 21 -758 2 -429 -1 -754 -7 -807 -16 -148 -52 -194 -184 -235 -67 -22
-72 -25 -75 -54 l-3 -31 800 0 c634 0 801 3 801 13 0 23 30 412 35 455 l5 42
-35 0 c-20 0 -35 -5 -35 -12 0 -36 -86 -184 -142 -244 -106 -112 -187 -139
-399 -132 -187 6 -248 36 -284 137 -12 36 -15 104 -15 387 l0 344 218 0 c247
0 286 -7 346 -66 42 -41 65 -81 81 -144 10 -42 13 -45 48 -48 l37 -3 0 320 0
321 -37 0 c-38 0 -38 -1 -55 -59 -23 -79 -71 -140 -133 -171 -48 -24 -58 -25
-277 -28 l-228 -4 0 436 0 436 223 0 c303 0 376 -15 445 -95 40 -45 63 -91 93
-182 21 -68 25 -73 51 -73 l28 0 0 235 0 235 -780 0 c-671 0 -781 -2 -786 -14z"/>
<path d="M7890 7511 c-65 -23 -143 -101 -160 -159 -51 -186 67 -352 249 -352
156 1 266 110 265 265 -1 186 -177 309 -354 246z"/>
<path d="M10679 7523 c-54 -8 -132 -66 -166 -121 -108 -182 14 -401 225 -402
149 0 262 109 262 253 0 91 -17 135 -76 194 -69 69 -142 92 -245 76z"/>
<path d="M54 6250 c-12 -5 -29 -19 -38 -32 -15 -20 -16 -273 -16 -2900 l0
-2877 24 -28 c24 -28 25 -28 166 -31 157 -4 181 -1 210 28 20 20 20 46 20
2904 0 1586 -3 2892 -6 2901 -14 35 -58 45 -201 44 -76 0 -148 -4 -159 -9z"/>
<path d="M18654 6250 c-12 -5 -29 -19 -38 -32 -15 -20 -16 -273 -16 -2900 l0
-2877 24 -28 c24 -28 26 -28 157 -31 154 -4 192 1 219 30 20 22 20 37 20 2907
-1 2253 -3 2889 -13 2902 -25 33 -55 39 -194 38 -76 0 -148 -4 -159 -9z"/>
<path d="M9506 4968 c-142 -381 -280 -740 -308 -797 -59 -123 -133 -206 -210
-236 -39 -14 -48 -22 -48 -41 l0 -24 280 0 280 0 0 24 c0 19 -9 27 -46 41 -62
23 -111 69 -124 113 -13 47 4 118 67 282 l48 125 310 0 310 0 64 -170 c35 -93
66 -190 69 -215 6 -68 -27 -104 -124 -132 -64 -19 -74 -25 -74 -45 l0 -23 430
0 430 0 0 23 c0 18 -10 25 -61 40 -93 27 -148 85 -214 222 -29 60 -171 424
-316 807 l-264 698 -120 0 -121 0 -258 -692z m388 -53 l123 -330 -255 -3
c-140 -1 -256 -1 -258 1 -1 1 46 140 107 307 153 429 141 398 151 375 4 -11
64 -168 132 -350z"/>
<path d="M16645 5649 c-327 -47 -612 -274 -722 -575 -58 -162 -69 -415 -24
-588 114 -437 533 -705 1026 -657 412 40 714 283 816 656 19 68 22 106 23 255
0 150 -3 186 -22 255 -97 351 -375 594 -742 650 -103 16 -259 18 -355 4z m298
-104 c88 -23 147 -57 208 -121 134 -141 186 -308 196 -627 11 -356 -51 -588
-196 -735 -101 -102 -234 -151 -375 -137 -218 21 -365 160 -439 415 -39 132
-51 259 -44 459 11 325 83 533 227 658 104 90 277 126 423 88z"/>
<path d="M1280 5587 c0 -18 10 -26 53 -41 75 -26 121 -59 143 -103 18 -36 19
-69 19 -688 0 -517 -3 -659 -13 -695 -19 -61 -66 -103 -141 -124 -53 -15 -61
-20 -61 -42 l0 -24 410 0 410 0 0 23 c0 20 -9 26 -62 41 -82 23 -131 70 -147
144 -7 32 -11 163 -11 337 l0 285 168 0 c123 0 183 -4 220 -15 71 -22 117 -69
139 -145 16 -54 21 -60 46 -60 l27 0 0 270 0 270 -28 0 c-24 0 -30 -7 -51 -61
-51 -132 -112 -159 -358 -159 l-163 0 2 358 3 357 145 3 c237 4 329 -20 399
-105 17 -21 39 -57 48 -80 15 -37 22 -43 47 -43 27 0 28 2 23 38 -3 20 -11 92
-18 160 l-13 122 -618 0 -618 0 0 -23z"/>
<path d="M2922 5589 c2 -17 19 -27 73 -45 80 -27 118 -62 135 -123 7 -27 10
-250 8 -693 -3 -630 -4 -654 -23 -693 -24 -47 -70 -80 -142 -101 -45 -13 -53
-19 -53 -40 l0 -24 665 0 664 0 5 33 c6 38 26 311 26 356 0 25 -4 31 -22 31
-19 0 -30 -15 -61 -82 -51 -107 -127 -185 -212 -217 -54 -20 -75 -22 -195 -19
-163 4 -202 18 -237 88 -22 43 -23 53 -23 343 l0 299 183 -4 c157 -4 188 -7
227 -25 62 -28 98 -70 120 -139 15 -51 21 -59 44 -62 l26 -3 0 270 0 271 -30
0 c-22 0 -30 -5 -30 -17 0 -30 -46 -116 -76 -145 -49 -45 -77 -51 -276 -56
l-188 -4 0 367 0 367 213 -4 c231 -6 276 -15 330 -66 33 -31 66 -93 91 -169
15 -45 21 -53 42 -53 l24 0 0 190 0 190 -656 0 -655 0 3 -21z"/>
<path d="M4670 5587 c0 -20 8 -26 58 -40 78 -22 115 -47 138 -93 18 -37 19
-72 22 -679 3 -455 0 -655 -8 -693 -18 -84 -79 -139 -172 -156 -32 -6 -38 -11
-38 -31 l0 -25 415 0 415 0 0 24 c0 20 -7 25 -47 35 -78 20 -128 55 -155 108
-22 47 -23 56 -26 357 l-3 309 92 -6 c174 -11 213 -50 394 -393 66 -125 150
-274 187 -330 l67 -104 256 0 255 0 0 23 c0 19 -8 26 -37 35 -110 33 -152 83
-318 382 -160 287 -221 375 -294 421 -37 24 -41 29 -25 35 128 45 247 141 294
239 22 45 25 63 25 170 0 107 -3 125 -25 170 -54 109 -169 191 -335 237 -77
22 -99 22 -607 26 l-528 3 0 -24z m888 -97 c31 -11 72 -33 92 -48 78 -64 120
-206 101 -345 -29 -205 -127 -285 -363 -295 l-118 -4 0 354 c0 195 3 358 8
363 13 14 221 -4 280 -25z"/>
<path d="M6820 5587 c0 -17 9 -26 38 -36 21 -8 70 -46 115 -89 l77 -75 0 -621
c0 -387 -4 -638 -11 -666 -20 -90 -88 -153 -186 -175 -26 -5 -33 -12 -33 -31
l0 -24 300 0 300 0 0 25 c0 19 -7 26 -27 31 -124 27 -192 76 -212 151 -8 28
-10 218 -9 608 l3 567 622 -701 c564 -634 626 -701 653 -701 l30 0 0 743 c0
836 -2 813 71 892 40 43 106 75 156 75 18 0 23 6 23 25 l0 25 -296 0 c-293 0
-295 0 -292 -21 2 -14 20 -27 63 -44 81 -33 129 -85 144 -156 8 -36 10 -199 9
-493 l-3 -439 -503 576 -503 577 -264 0 -265 0 0 -23z"/>
<path d="M11170 5587 c0 -17 9 -26 38 -36 21 -8 70 -46 115 -90 l78 -75 -3
-646 -3 -645 -24 -49 c-27 -55 -82 -95 -156 -116 -37 -10 -45 -17 -45 -36 l0
-24 300 0 300 0 0 25 c0 19 -7 26 -27 31 -124 27 -192 76 -212 151 -8 28 -10
218 -9 608 l3 567 620 -700 c575 -650 622 -701 652 -701 l33 -1 2 763 3 762
27 55 c15 31 41 66 58 78 36 27 102 52 136 52 19 0 24 5 24 25 l0 25 -296 0
c-293 0 -295 0 -292 -21 2 -14 20 -27 62 -44 71 -29 102 -56 130 -115 20 -43
21 -62 24 -420 2 -206 2 -415 0 -465 l-3 -89 -503 577 -504 577 -264 0 -264 0
0 -23z"/>
<path d="M13450 5587 c0 -19 8 -26 43 -37 87 -26 137 -58 158 -103 18 -40 19
-75 19 -698 0 -448 -3 -667 -11 -690 -16 -49 -67 -91 -143 -118 -56 -20 -66
-27 -66 -47 l0 -24 563 0 c651 0 719 6 899 81 147 61 295 188 373 320 88 150
129 363 106 555 -26 226 -100 376 -258 525 -95 89 -201 151 -331 195 -179 60
-227 64 -819 64 l-533 0 0 -23z m1030 -93 c265 -66 438 -275 485 -584 18 -113
19 -214 5 -330 -25 -197 -85 -336 -194 -444 -124 -124 -257 -171 -461 -164
-132 5 -190 27 -227 86 l-23 37 -3 714 -3 714 178 -6 c112 -4 202 -12 243 -23z"/>
<path d="M2328 2885 c-258 -52 -427 -277 -405 -539 17 -196 105 -316 341 -467
376 -239 420 -273 462 -362 46 -100 24 -212 -54 -277 -77 -63 -211 -93 -324
-70 -175 34 -301 157 -364 354 -19 62 -25 71 -48 74 l-26 3 0 -265 c0 -264 0
-266 21 -266 12 0 37 14 56 30 43 38 58 38 230 -2 115 -26 159 -31 263 -32
111 0 134 3 205 28 216 75 340 227 352 436 10 156 -37 283 -149 405 -60 66
-154 132 -458 324 -192 121 -245 178 -257 279 -11 93 41 178 141 230 43 22 64
26 136 27 80 0 92 -3 162 -37 99 -49 200 -153 243 -250 26 -59 33 -67 58 -68
l27 0 0 230 0 230 -25 0 c-13 0 -41 -11 -61 -25 -20 -14 -47 -25 -60 -25 -12
0 -79 11 -148 25 -139 28 -217 30 -318 10z"/>
<path d="M4260 2878 c-5 -13 -127 -338 -271 -723 -250 -672 -305 -803 -366
-880 -35 -44 -97 -89 -145 -104 -30 -10 -38 -18 -38 -37 l0 -24 280 0 280 0 0
23 c0 17 -14 28 -63 52 -127 61 -134 120 -47 358 l55 147 314 -2 314 -3 60
-160 c61 -164 78 -246 58 -284 -14 -25 -71 -56 -135 -72 -39 -9 -46 -15 -46
-35 l0 -24 425 0 425 0 0 23 c0 18 -10 25 -63 40 -83 25 -147 89 -204 207 -30
63 -352 899 -580 1508 -4 9 -38 12 -124 12 -114 0 -120 -1 -129 -22z m128
-703 c66 -176 123 -328 127 -337 7 -17 -9 -18 -249 -18 -141 0 -256 3 -256 8
-1 24 245 690 251 679 4 -7 61 -156 127 -332z"/>
<path d="M6445 2886 c-515 -81 -851 -557 -760 -1079 55 -313 258 -565 547
-677 129 -50 224 -65 413 -64 244 0 457 35 599 98 l56 25 0 224 c0 170 4 235
15 274 17 57 54 95 117 120 29 12 38 21 38 39 l0 24 -370 0 -370 0 0 -24 c0
-20 8 -27 48 -40 27 -9 61 -29 75 -44 50 -52 57 -86 57 -283 0 -168 -2 -184
-22 -220 -61 -109 -299 -130 -484 -43 -73 34 -169 130 -211 209 -76 144 -109
341 -100 589 10 229 40 364 115 511 46 89 147 192 222 227 109 52 262 61 383
24 79 -25 182 -84 246 -143 63 -57 152 -182 172 -240 9 -29 15 -34 37 -31 l27
3 3 243 2 242 -31 0 c-17 0 -42 -9 -56 -20 -32 -25 -90 -41 -122 -34 -14 3
-74 21 -133 40 -197 62 -342 76 -513 50z"/>
<path d="M8356 2183 c-148 -395 -287 -754 -309 -798 -53 -103 -133 -186 -205
-211 -42 -15 -52 -23 -52 -41 l0 -23 285 0 285 0 0 24 c0 19 -9 27 -46 41
-100 38 -144 106 -125 193 8 39 62 193 106 305 7 16 31 17 319 17 l313 0 62
-167 c78 -208 84 -247 46 -291 -21 -25 -45 -38 -101 -54 -64 -19 -74 -25 -74
-45 l0 -23 430 0 430 0 0 24 c0 20 -7 25 -37 31 -99 18 -165 81 -234 220 -27
55 -169 417 -317 805 l-267 705 -121 3 -120 3 -268 -718z m393 -21 c67 -177
121 -327 121 -332 0 -6 -95 -10 -256 -10 -222 0 -255 2 -250 15 3 8 57 160
121 337 63 178 118 330 121 338 5 12 8 11 14 -5 4 -11 62 -165 129 -343z"/>
<path d="M10545 2883 c-282 -60 -451 -321 -391 -604 8 -37 29 -95 46 -129 60
-120 118 -166 515 -419 195 -124 255 -198 255 -316 0 -134 -86 -219 -249 -247
-140 -24 -283 23 -386 128 -61 62 -117 165 -136 249 -11 51 -14 55 -41 55
l-28 0 2 -263 c3 -258 3 -262 24 -265 13 -2 33 9 52 27 39 39 56 39 229 -1
116 -26 158 -31 263 -31 156 0 249 26 357 102 141 99 203 223 203 405 0 206
-108 362 -366 528 -381 245 -415 269 -447 314 -18 25 -37 60 -44 77 -39 108
19 223 142 279 39 18 68 23 131 23 73 0 87 -3 156 -37 96 -48 201 -155 248
-252 26 -55 35 -66 56 -66 l24 0 0 230 0 230 -25 0 c-13 0 -41 -11 -61 -25
-45 -31 -50 -31 -204 0 -142 28 -224 30 -325 8z"/>
<path d="M15866 2208 c-142 -381 -280 -740 -308 -797 -61 -128 -135 -209 -215
-237 -43 -15 -53 -23 -53 -41 l0 -23 285 0 285 0 0 24 c0 18 -9 27 -45 41 -59
22 -104 60 -122 103 -11 27 -12 44 -3 89 10 46 55 176 102 296 l10 27 313 0
312 0 62 -166 c34 -92 65 -188 68 -213 8 -69 -25 -104 -123 -133 -64 -19 -74
-25 -74 -45 l0 -23 430 0 430 0 0 24 c0 20 -7 25 -37 31 -96 18 -171 89 -236
223 -23 48 -164 408 -312 799 l-270 713 -120 0 -121 0 -258 -692z m383 -46
c67 -177 121 -327 121 -332 0 -6 -95 -10 -256 -10 -240 0 -256 1 -249 18 4 9
58 159 120 332 144 399 127 357 136 334 4 -10 61 -164 128 -342z"/>
<path d="M13576 2818 c-3 -40 -8 -135 -11 -210 l-6 -138 25 0 c21 0 29 11 56
69 38 81 104 150 175 183 44 20 70 23 203 26 l153 4 -3 -729 c-3 -679 -4 -730
-21 -761 -22 -39 -64 -67 -134 -88 -45 -13 -53 -19 -53 -40 l0 -24 405 0 405
0 0 24 c0 21 -8 27 -57 41 -78 23 -126 72 -142 143 -7 37 -11 266 -11 743 l0
691 153 -4 c143 -3 156 -5 215 -32 77 -36 129 -92 168 -181 23 -53 33 -65 51
-65 21 0 23 4 23 58 0 33 -3 127 -7 210 l-6 152 -27 0 c-15 0 -45 -8 -66 -17
-36 -16 -94 -18 -659 -21 -542 -3 -630 -1 -690 13 -39 9 -84 19 -102 22 l-31
5 -6 -74z"/>
<path d="M11750 2828 c0 -19 10 -26 58 -40 75 -23 117 -50 139 -90 17 -31 18
-77 18 -703 0 -369 -3 -682 -8 -697 -14 -53 -64 -96 -138 -120 -59 -19 -69
-25 -69 -45 l0 -23 665 0 665 0 4 22 c5 27 26 319 26 366 0 27 -4 32 -22 32
-19 0 -29 -14 -57 -76 -41 -91 -114 -175 -185 -212 -49 -26 -57 -27 -206 -27
-186 0 -221 11 -257 85 -22 43 -23 53 -23 337 l0 293 188 0 c161 0 193 -3 228
-19 53 -24 95 -76 115 -143 14 -45 20 -53 43 -56 l26 -3 0 270 0 271 -30 0
c-22 0 -30 -5 -30 -17 0 -34 -47 -118 -83 -150 -49 -42 -107 -53 -297 -53
l-160 0 0 360 0 360 214 0 c234 0 276 -7 329 -58 33 -31 66 -93 91 -169 15
-45 21 -53 42 -53 l24 0 0 190 0 190 -655 0 -655 0 0 -22z"/>
<path d="M4449 650 l-30 -29 3 -287 3 -286 28 -24 c27 -23 34 -24 183 -24
l156 0 29 29 29 29 0 282 0 282 -29 29 -29 29 -157 0 -157 0 -29 -30z"/>
<path d="M14183 656 l-28 -24 0 -292 0 -292 28 -24 c27 -23 34 -24 177 -24
160 0 191 7 209 47 16 34 15 557 -1 586 -23 43 -36 46 -200 47 -152 0 -158 -1
-185 -24z"/>
</g>
</svg>
